<svg xmlns="http://www.w3.org/2000/svg" viewBox="0 0 32 32">
<path fill="white" d="M13.733 6.615c0.322-0.034 0.655 0.001 0.967 0.079 0.927 0.232 1.556 0.801 2.033 1.597 0.38-0.040 0.764-0.017 1.135 0.069 0.794 0.197 1.478 0.691 1.907 1.378 0.212 0.338 0.353 0.715 0.414 1.108s0.041 0.794-0.058 1.179c-0.265 1.003-0.902 1.525-1.769 2.025 0.024 0.616 0.015 1.234 0.016 1.85 0.001 0.389 0.026 0.795-0.012 1.182-0.016 0.164-0.048 0.298-0.134 0.44-0.125 0.089-0.252 0.116-0.403 0.134-0.397 0.048-0.828 0.015-1.228 0.015l-2.359-0.008c-0.839 0.062-1.728 0.003-2.572 0.004-0.562 0-1.194 0.066-1.749 0.004-0.198-0.022-0.282-0.153-0.391-0.298-0.070-1.105-0.011-2.247-0.010-3.356-0.462-0.236-0.855-0.526-1.177-0.933-0.24-0.304-0.417-0.652-0.52-1.023s-0.13-0.76-0.080-1.142c0.12-0.813 0.561-1.546 1.226-2.042 0.658-0.486 1.437-0.684 2.247-0.573 0.113-0.196 0.226-0.392 0.366-0.571 0.54-0.688 1.293-1.009 2.149-1.117zM13.779 7.972c-0.526 0.103-0.98 0.291-1.297 0.747-0.178 0.255-0.34 0.988-0.562 1.1-0.293 0.035-0.6-0.1-0.885-0.162-0.571-0.124-1.216 0.102-1.569 0.561-0.291 0.377-0.428 0.897-0.35 1.365 0.070 0.423 0.329 0.778 0.684 1.021 0.387 0.265 0.818 0.317 1.085 0.733 0.049 0.963 0.014 1.943 0.015 2.908 1.124-0.009 2.248-0.011 3.372-0.007l2.746-0.006c-0-0.489-0.106-2.922 0.123-3.161 0.107-0.112 0.353-0.18 0.498-0.237 0.654-0.254 1.133-0.695 1.192-1.421 0.040-0.479-0.117-0.91-0.439-1.267-0.293-0.325-0.676-0.498-1.117-0.524-0.387-0.023-1.184 0.342-1.427 0.071-0.118-0.132-0.166-0.36-0.226-0.526-0.248-0.685-0.765-1.082-1.493-1.176-0.117-0.015-0.232-0.021-0.349-0.019z"></path>
<path fill="white" d="M26.701 2.373c0.244-0.018 0.536-0.014 0.728 0.161 0.179 0.163 0.188 0.425 0.128 0.643-0.145 0.528-0.608 1.16-0.887 1.641-0.446 0.768-0.863 1.558-1.296 2.334-0.268 0.481-0.592 0.973-0.807 1.475-0.068 0.16-0.12 0.328-0.112 0.503 0.007 0.152 0.060 0.267 0.178 0.367 0.166 0.141 0.385 0.252 0.61 0.222 0.15-0.020 0.27-0.098 0.363-0.214 0.318-0.395 0.506-0.945 0.738-1.391l1.601-3.089c0.189-0.369 0.356-0.822 0.622-1.142 0.14-0.169 0.271-0.249 0.495-0.268 0.177-0.015 0.35 0.031 0.487 0.146 0.162 0.136 0.238 0.356 0.206 0.562-0.061 0.397-0.415 0.879-0.604 1.24l-1.453 2.849c-0.259 0.514-0.563 1.039-0.772 1.574-0.048 0.124-0.097 0.264-0.079 0.399 0.021 0.158 0.139 0.297 0.267 0.387 0.143 0.1 0.338 0.167 0.515 0.128 0.203-0.045 0.345-0.191 0.458-0.354 0.259-0.37 0.43-0.856 0.62-1.265l1.241-2.629c0.234-0.499 0.447-1.085 0.758-1.539 0.112-0.163 0.233-0.293 0.439-0.325 0.209-0.032 0.42 0.056 0.578 0.186 0.131 0.109 0.229 0.237 0.235 0.411 0.015 0.447-0.805 1.999-1.028 2.497l-0.879 1.964c-0.432 0.969-0.8 1.94-1.528 2.741-0.717 0.789-1.532 1.124-2.516 1.476-0.207 0.074-0.526 0.147-0.702 0.273-0.348 0.249-0.59 0.709-0.795 1.071-0.157 0.279-0.357 0.582-0.455 0.886-0.145 0.449-0.049 1.821-0.049 2.363l-0.002 6.996 0.004 2.139c0.001 0.419 0.026 0.857-0.020 1.273-0.017 0.152-0.078 0.323-0.191 0.432-0.341 0.331-1.596 0.214-2.078 0.211l-3.285-0.004c0.189-0.502 0.423-0.996 0.67-1.473 0.426-0.044 0.864-0.025 1.293-0.025l2.119 0.001 0-9.143c-0.274 0.65-0.624 1.286-0.94 1.918-0.562 1.119-1.118 2.242-1.668 3.367-0.664 1.369-1.338 2.733-2.023 4.092-0.286 0.568-0.541 1.166-0.866 1.713-0.132 0.222-0.291 0.422-0.512 0.564-0.3 0.192-0.664 0.26-1.015 0.191-0.17-0.035-0.332-0.105-0.473-0.204s-0.261-0.227-0.351-0.374c-0.19-0.306-0.238-0.648-0.135-0.992 0.169-0.561 0.524-1.103 0.805-1.617l1.336-2.445c1.618-2.962 3.249-5.923 4.814-8.912 0.369-0.704 1.204-2.040 1.405-2.704 0.219-0.722-0.241-1.587-0.376-2.298-0.121-0.639-0.106-1.254 0.058-1.885 0.069-0.269 0.167-0.531 0.292-0.78 0.214-0.421 0.471-0.824 0.709-1.231l1.234-2.13 0.996-1.727c0.197-0.34 0.383-0.707 0.621-1.021 0.074-0.098 0.166-0.158 0.272-0.219z"></path>
<path fill="white" d="M4.303 1.093c1.142-0.060 2.31-0.009 3.455-0.008l12.521-0.001c0.966-0 1.97-0.055 2.933 0.006 0.197 0.012 0.421 0.067 0.57 0.203 0.131 0.119 0.187 0.329 0.212 0.496 0.051 0.339 0.021 0.71 0.020 1.053l-0.008 1.946c-0.477 0.767-0.999 1.512-1.5 2.263 0.044-0.504 0.014-1.029 0.014-1.536l-0-2.853c-5.711 0.005-11.429 0.057-17.14-0.003-0.058 2.336-0.005 4.687-0.005 7.025l0.003 12.921 10.081-0.008c0.441-0.001 0.911-0.032 1.348 0.024-0.162 0.503-0.471 1.008-0.711 1.481l-10.323-0.018c-0.544 0.001-1.112-0.025-1.651 0.054-0.464 0.065-0.901 0.254-1.265 0.546-0.444 0.355-0.768 0.868-0.814 1.438-0.041 0.502 0.158 0.986 0.484 1.364 0.306 0.355 0.776 0.624 1.24 0.711 0.678 0.128 1.687 0.037 2.401 0.040l4.855 0.004c0.903 0.001 1.822-0.037 2.722 0.028-0.16 0.467-0.306 0.973-0.397 1.457-0.814-0.072-1.681-0.013-2.502-0.013l-4.862-0.001c-0.846 0.002-1.809 0.099-2.635-0.078-0.58-0.124-1.124-0.425-1.577-0.798-0.731-0.6-1.191-1.526-1.266-2.456-0.042-0.52-0.012-1.060-0.009-1.582l0.001-2.533-0-8.76-0.002-6.074c-0.001-0.781-0.073-2.155 0.033-2.893 0.1-0.731 0.413-1.418 0.903-1.976 0.721-0.847 1.754-1.376 2.872-1.472zM3.851 2.727c-0.804 0.326-1.394 0.735-1.737 1.551-0.118 0.282-0.15 0.628-0.16 0.932-0.050 1.486-0.004 2.991-0.003 4.48l0.001 8.594 0.001 3.81c0 0.432-0.081 1.020 0.015 1.432l0.034 0.012 0.053-0.035c0.606-0.448 1.12-0.693 1.865-0.849-0.058-2.124-0.007-4.264-0.005-6.388 0.003-2.388-0.039-4.782-0.012-7.169 0.016-1.562 0.019-3.125 0.010-4.687-0-0.376 0.062-1.357-0.011-1.665l-0.051-0.015z"></path>
</svg>