<svg aria-hidden="true" style="position: absolute; width: 0; height: 0; overflow: hidden;" version="1.1" xmlns="http://www.w3.org/2000/svg" xmlns:xlink="http://www.w3.org/1999/xlink">
<defs>
<symbol id="icon-filter" viewBox="0 0 31 32">
<path stroke-width="1.28" stroke-miterlimit="4" stroke-linecap="butt" stroke-linejoin="miter" d="M8.552 7.84h13.616c1.012 0 1.832 0.82 1.832 1.832 0 0.468-0.179 0.918-0.5 1.258l-6.146 6.511v4.507c0 1.469-1.535 2.434-2.859 1.796-0.69-0.332-1.129-1.031-1.129-1.796v-4.507l-6.146-6.511c-0.321-0.34-0.5-0.79-0.5-1.258 0-1.012 0.82-1.832 1.832-1.832z"></path>
</symbol>
<symbol id="icon-photo" viewBox="0 0 32 32">
<path stroke-width="1.5769" stroke-miterlimit="4" stroke-linecap="butt" stroke-linejoin="miter" d="M21.762 18.305c0 3.182-2.58 5.762-5.762 5.762s-5.762-2.58-5.762-5.762c0-3.182 2.58-5.762 5.762-5.762s5.762 2.58 5.762 5.762z"></path>
<path stroke-width="1.5769" stroke-miterlimit="4" stroke-linecap="butt" stroke-linejoin="miter" d="M1.019 26.25v-14.043c0-2.36 1.913-4.273 4.273-4.273 1.619 0 3.098-0.914 3.822-2.362l0.968-1.937c0.801-1.603 2.439-2.615 4.231-2.615h3.371c1.792 0 3.43 1.012 4.231 2.615l0.968 1.937c0.724 1.448 2.203 2.362 3.822 2.362 2.36 0 4.273 1.913 4.273 4.273v14.043c0 2.613-2.118 4.731-4.731 4.731h-20.5c-2.613 0-4.731-2.118-4.731-4.731z"></path>
</symbol>
<symbol id="icon-arrowLeft" viewBox="0 0 32 32">
<path stroke-width="1.3333" stroke-miterlimit="4" stroke-linecap="round" stroke-linejoin="round" d="M25.996 16l-19.996 0.004M6 16.004l5.384 5.386M6 16.004l5.384-5.386"></path>
</symbol>
<symbol id="icon-arrowRight" viewBox="0 0 32 32">
<path stroke-width="1.3333" stroke-miterlimit="4" stroke-linecap="round" stroke-linejoin="round" d="M6 16.004l19.996-0.004M25.996 16l-5.384-5.386M25.996 16l-5.384 5.386"></path>
</symbol>
<symbol id="icon-bookmark" viewBox="0 0 32 32">
<path stroke-width="1.3333" stroke-miterlimit="4" stroke-linecap="round" stroke-linejoin="round" d="M15.996 4.667c1.685 0 3.231 0.161 4.457 0.348 1.552 0.236 2.768 1.299 3.115 2.785 0.418 1.794 0.828 4.522 0.758 8.187-0.078 4.044-0.668 6.962-1.237 8.866-0.154 0.515-0.51 0.78-0.913 0.848-0.421 0.071-0.941-0.069-1.363-0.49-0.769-0.766-1.65-1.593-2.462-2.232-0.405-0.319-0.809-0.604-1.184-0.811-0.353-0.196-0.767-0.374-1.171-0.374-0.397 0-0.825 0.175-1.199 0.367-0.399 0.205-0.84 0.486-1.292 0.805-0.905 0.639-1.907 1.466-2.789 2.233-0.466 0.405-1.014 0.5-1.447 0.383-0.417-0.114-0.769-0.434-0.878-0.992-0.372-1.917-0.725-4.749-0.725-8.59 0-3.831 0.395-6.534 0.788-8.273 0.326-1.442 1.502-2.468 3.014-2.702 1.236-0.191 2.81-0.358 4.527-0.358z"></path>
</symbol>
<symbol id="icon-burger" viewBox="0 0 32 32">
<path stroke-width="1.2929" stroke-miterlimit="4" stroke-linecap="round" stroke-linejoin="miter" d="M7.758 9.535h16.485M7.758 21.172h16.485M7.758 15.354h16.485"></path>
</symbol>
<symbol id="icon-clock" viewBox="0 0 32 32">
<path stroke-width="0.6667" stroke-miterlimit="4" stroke-linecap="round" stroke-linejoin="round" d="M16 10.154v6.577l4.385 3.654M25.5 16c0 5.247-4.253 9.5-9.5 9.5s-9.5-4.253-9.5-9.5c0-5.247 4.253-9.5 9.5-9.5s9.5 4.253 9.5 9.5z"></path>
</symbol>
<symbol id="icon-cross" viewBox="0 0 32 32">
<path stroke-width="1.28" stroke-miterlimit="4" stroke-linecap="round" stroke-linejoin="round" d="M7.36 7.36l8.64 8.64M16 16l-8.64 8.64M16 16l8.64 8.64M16 16l8.64-8.64"></path>
</symbol>
<symbol id="icon-dropDownArrow" viewBox="0 0 32 32">
<path stroke-width="1.8824" stroke-miterlimit="4" stroke-linecap="round" stroke-linejoin="round" d="M24.471 11.765l-8.471 8.471-8.471-8.471"></path>
</symbol>
<symbol id="icon-exit" viewBox="0 0 32 32">
<path stroke-width="1.3333" stroke-miterlimit="4" stroke-linecap="round" stroke-linejoin="round" d="M13.077 6.5h-3.654c-1.614 0-2.923 1.309-2.923 2.923v13.154c0 1.614 1.309 2.923 2.923 2.923h3.654M11.5 16h14.615M26.115 16l-4.385 4.385M26.115 16l-4.385-4.385"></path>
</symbol>
<symbol id="icon-eye" viewBox="0 0 32 32">
<path stroke-width="1.3333" stroke-miterlimit="4" stroke-linecap="round" stroke-linejoin="miter" d="M19.214 22.65c-1.086 0.504-2.291 0.833-3.56 0.833-4.779 0-8.654-4.655-8.654-5.838 0-0.67 1.245-2.456 3.194-3.878M23.269 19.516c0.662-0.797 1.038-1.502 1.038-1.871 0-1.183-3.874-5.837-8.654-5.837 2.103 0 3.808 1.691 3.808 3.777M15.654 19.362c-2.103 0-3.808-1.691-3.808-3.777M25 11.807c-2.636-2.181-5.713-3.434-9-3.434-1.185 0-2.342 0.163-3.462 0.473M7 11.807c0.244-0.202 0.492-0.396 0.744-0.582M7 7l16.714 16.875"></path>
</symbol>
<symbol id="icon-logo" viewBox="0 0 32 32">
<path d="M13.733 6.615c0.322-0.034 0.655 0.001 0.967 0.079 0.927 0.232 1.556 0.801 2.033 1.597 0.38-0.040 0.764-0.017 1.135 0.069 0.794 0.197 1.478 0.691 1.907 1.378 0.212 0.338 0.353 0.715 0.414 1.108s0.041 0.794-0.058 1.179c-0.265 1.003-0.902 1.525-1.769 2.025 0.024 0.616 0.015 1.234 0.016 1.85 0.001 0.389 0.026 0.795-0.012 1.182-0.016 0.164-0.048 0.298-0.134 0.44-0.125 0.089-0.252 0.116-0.403 0.134-0.397 0.048-0.828 0.015-1.228 0.015l-2.359-0.008c-0.839 0.062-1.728 0.003-2.572 0.004-0.562 0-1.194 0.066-1.749 0.004-0.198-0.022-0.282-0.153-0.391-0.298-0.070-1.105-0.011-2.247-0.010-3.356-0.462-0.236-0.855-0.526-1.177-0.933-0.24-0.304-0.417-0.652-0.52-1.023s-0.13-0.76-0.080-1.142c0.12-0.813 0.561-1.546 1.226-2.042 0.658-0.486 1.437-0.684 2.247-0.573 0.113-0.196 0.226-0.392 0.366-0.571 0.54-0.688 1.293-1.009 2.149-1.117zM13.779 7.972c-0.526 0.103-0.98 0.291-1.297 0.747-0.178 0.255-0.34 0.988-0.562 1.1-0.293 0.035-0.6-0.1-0.885-0.162-0.571-0.124-1.216 0.102-1.569 0.561-0.291 0.377-0.428 0.897-0.35 1.365 0.070 0.423 0.329 0.778 0.684 1.021 0.387 0.265 0.818 0.317 1.085 0.733 0.049 0.963 0.014 1.943 0.015 2.908 1.124-0.009 2.248-0.011 3.372-0.007l2.746-0.006c-0-0.489-0.106-2.922 0.123-3.161 0.107-0.112 0.353-0.18 0.498-0.237 0.654-0.254 1.133-0.695 1.192-1.421 0.040-0.479-0.117-0.91-0.439-1.267-0.293-0.325-0.676-0.498-1.117-0.524-0.387-0.023-1.184 0.342-1.427 0.071-0.118-0.132-0.166-0.36-0.226-0.526-0.248-0.685-0.765-1.082-1.493-1.176-0.117-0.015-0.232-0.021-0.349-0.019z"></path>
<path d="M26.701 2.373c0.244-0.018 0.536-0.014 0.728 0.161 0.179 0.163 0.188 0.425 0.128 0.643-0.145 0.528-0.608 1.16-0.887 1.641-0.446 0.768-0.863 1.558-1.296 2.334-0.268 0.481-0.592 0.973-0.807 1.475-0.068 0.16-0.12 0.328-0.112 0.503 0.007 0.152 0.060 0.267 0.178 0.367 0.166 0.141 0.385 0.252 0.61 0.222 0.15-0.020 0.27-0.098 0.363-0.214 0.318-0.395 0.506-0.945 0.738-1.391l1.601-3.089c0.189-0.369 0.356-0.822 0.622-1.142 0.14-0.169 0.271-0.249 0.495-0.268 0.177-0.015 0.35 0.031 0.487 0.146 0.162 0.136 0.238 0.356 0.206 0.562-0.061 0.397-0.415 0.879-0.604 1.24l-1.453 2.849c-0.259 0.514-0.563 1.039-0.772 1.574-0.048 0.124-0.097 0.264-0.079 0.399 0.021 0.158 0.139 0.297 0.267 0.387 0.143 0.1 0.338 0.167 0.515 0.128 0.203-0.045 0.345-0.191 0.458-0.354 0.259-0.37 0.43-0.856 0.62-1.265l1.241-2.629c0.234-0.499 0.447-1.085 0.758-1.539 0.112-0.163 0.233-0.293 0.439-0.325 0.209-0.032 0.42 0.056 0.578 0.186 0.131 0.109 0.229 0.237 0.235 0.411 0.015 0.447-0.805 1.999-1.028 2.497l-0.879 1.964c-0.432 0.969-0.8 1.94-1.528 2.741-0.717 0.789-1.532 1.124-2.516 1.476-0.207 0.074-0.526 0.147-0.702 0.273-0.348 0.249-0.59 0.709-0.795 1.071-0.157 0.279-0.357 0.582-0.455 0.886-0.145 0.449-0.049 1.821-0.049 2.363l-0.002 6.996 0.004 2.139c0.001 0.419 0.026 0.857-0.020 1.273-0.017 0.152-0.078 0.323-0.191 0.432-0.341 0.331-1.596 0.214-2.078 0.211l-3.285-0.004c0.189-0.502 0.423-0.996 0.67-1.473 0.426-0.044 0.864-0.025 1.293-0.025l2.119 0.001 0-9.143c-0.274 0.65-0.624 1.286-0.94 1.918-0.562 1.119-1.118 2.242-1.668 3.367-0.664 1.369-1.338 2.733-2.023 4.092-0.286 0.568-0.541 1.166-0.866 1.713-0.132 0.222-0.291 0.422-0.512 0.564-0.3 0.192-0.664 0.26-1.015 0.191-0.17-0.035-0.332-0.105-0.473-0.204s-0.261-0.227-0.351-0.374c-0.19-0.306-0.238-0.648-0.135-0.992 0.169-0.561 0.524-1.103 0.805-1.617l1.336-2.445c1.618-2.962 3.249-5.923 4.814-8.912 0.369-0.704 1.204-2.040 1.405-2.704 0.219-0.722-0.241-1.587-0.376-2.298-0.121-0.639-0.106-1.254 0.058-1.885 0.069-0.269 0.167-0.531 0.292-0.78 0.214-0.421 0.471-0.824 0.709-1.231l1.234-2.13 0.996-1.727c0.197-0.34 0.383-0.707 0.621-1.021 0.074-0.098 0.166-0.158 0.272-0.219z"></path>
<path d="M4.303 1.093c1.142-0.060 2.31-0.009 3.455-0.008l12.521-0.001c0.966-0 1.97-0.055 2.933 0.006 0.197 0.012 0.421 0.067 0.57 0.203 0.131 0.119 0.187 0.329 0.212 0.496 0.051 0.339 0.021 0.71 0.020 1.053l-0.008 1.946c-0.477 0.767-0.999 1.512-1.5 2.263 0.044-0.504 0.014-1.029 0.014-1.536l-0-2.853c-5.711 0.005-11.429 0.057-17.14-0.003-0.058 2.336-0.005 4.687-0.005 7.025l0.003 12.921 10.081-0.008c0.441-0.001 0.911-0.032 1.348 0.024-0.162 0.503-0.471 1.008-0.711 1.481l-10.323-0.018c-0.544 0.001-1.112-0.025-1.651 0.054-0.464 0.065-0.901 0.254-1.265 0.546-0.444 0.355-0.768 0.868-0.814 1.438-0.041 0.502 0.158 0.986 0.484 1.364 0.306 0.355 0.776 0.624 1.24 0.711 0.678 0.128 1.687 0.037 2.401 0.040l4.855 0.004c0.903 0.001 1.822-0.037 2.722 0.028-0.16 0.467-0.306 0.973-0.397 1.457-0.814-0.072-1.681-0.013-2.502-0.013l-4.862-0.001c-0.846 0.002-1.809 0.099-2.635-0.078-0.58-0.124-1.124-0.425-1.577-0.798-0.731-0.6-1.191-1.526-1.266-2.456-0.042-0.52-0.012-1.060-0.009-1.582l0.001-2.533-0-8.76-0.002-6.074c-0.001-0.781-0.073-2.155 0.033-2.893 0.1-0.731 0.413-1.418 0.903-1.976 0.721-0.847 1.754-1.376 2.872-1.472zM3.851 2.727c-0.804 0.326-1.394 0.735-1.737 1.551-0.118 0.282-0.15 0.628-0.16 0.932-0.050 1.486-0.004 2.991-0.003 4.48l0.001 8.594 0.001 3.81c0 0.432-0.081 1.020 0.015 1.432l0.034 0.012 0.053-0.035c0.606-0.448 1.12-0.693 1.865-0.849-0.058-2.124-0.007-4.264-0.005-6.388 0.003-2.388-0.039-4.782-0.012-7.169 0.016-1.562 0.019-3.125 0.010-4.687-0-0.376 0.062-1.357-0.011-1.665l-0.051-0.015z"></path>
</symbol>
<symbol id="icon-mobileCross" viewBox="0 0 32 32">
<path stroke-width="1.3333" stroke-miterlimit="4" stroke-linecap="butt" stroke-linejoin="miter" d="M25.5 16c0 5.247-4.253 9.5-9.5 9.5s-9.5-4.253-9.5-9.5c0-5.247 4.253-9.5 9.5-9.5s9.5 4.253 9.5 9.5z"></path>
<path stroke-width="1.3333" stroke-miterlimit="4" stroke-linecap="round" stroke-linejoin="miter" d="M19.699 12.346l-3.699 3.699M16 16.046l-3.699 3.699M16 16.046l3.699 3.699M16 16.046l-3.699-3.699"></path>
</symbol>
<symbol id="icon-trash" viewBox="0 0 32 32">
<path stroke-width="1.3333" stroke-miterlimit="4" stroke-linecap="round" stroke-linejoin="round" d="M16 21.846v-8.769M6.5 9.423h2.192M25.5 9.423h-2.192M19.654 9.423h-7.308M19.654 9.423v-1.462c0-0.807-0.654-1.462-1.462-1.462h-4.385c-0.807 0-1.462 0.654-1.462 1.462v1.462M19.654 9.423h3.654M12.346 9.423h-3.654M23.308 9.423v13.154c0 1.614-1.309 2.923-2.923 2.923h-8.769c-1.614 0-2.923-1.309-2.923-2.923v-13.154"></path>
</symbol>
</defs>
</svg>
